{"asset":{"version":"2.0","generator":"VECTARY"},"nodes":[{"translation":[0,-0.00023700709640979767,-2.7755575615628914e-20],"scale":[0.001,0.001,0.001],"rotation":[-0.7071067811865475,0,0,0.7071067811865476],"name":"Group","children":[1]},{"translation":[0,0,0],"scale":[1,1,1],"rotation":[0,0,0,1],"name":"Merged Objects","mesh":0},{"translation":[0.31857813288639325,0.12705185462349503,-0.22669005127900688],"scale":[1,1,1],"rotation":[-0.05035314572561844,0.8795365969947576,0.09556909929552704,0.46340746921284914],"name":"Camera","camera":0}],"materials":[{"pbrMetallicRoughness":{"baseColorFactor":[1,1,1,1],"baseColorTexture":{"index":0,"extensions":{"KHR_texture_transform":{"offset":[0,0],"scale":[1,1],"rotation":1.5707963267948966}},"texCoord":0},"metallicRoughnessTexture":{"index":2,"extensions":{"KHR_texture_transform":{"offset":[0,0],"scale":[1,1],"rotation":1.5707963267948966}},"texCoord":0},"metallicFactor":0,"roughnessFactor":1},"name":"Pine","normalTexture":{"index":1,"scale":1,"extensions":{"KHR_texture_transform":{"offset":[0,0],"scale":[1,1],"rotation":1.5707963267948966}},"texCoord":0},"emissiveFactor":[0,0,0],"extensions":{},"alphaMode":"OPAQUE","doubleSided":true}],"textures":[{"sampler":0,"source":0},{"sampler":0,"source":1},{"sampler":0,"source":2}],"images":[{"uri":"wood_Wood_006_Color.jpg","mimeType":"image/jpeg"},{"uri":"wood_Wood_006_NormalMap.jpg","mimeType":"image/jpeg"},{"uri":"metallicTexture&wood_Wood_006_Roughness_3.jpg","mimeType":"image/jpeg"}],"samplers":[{"wrapS":10497,"wrapT":10497}],"meshes":[{"primitives":[{"mode":4,"attributes":{"POSITION":1,"NORMAL":2,"TEXCOORD_0":3},"material":0,"indices":0}]}],"accessors":[{"bufferView":0,"byteOffset":0,"componentType":5125,"count":6816,"type":"SCALAR"},{"bufferView":1,"byteOffset":0,"componentType":5126,"count":1525,"max":[101.2225341796875,101.2225341796875,107.89299774169922],"min":[-101.2225341796875,-101.2225341796875,0],"type":"VEC3"},{"bufferView":2,"byteOffset":0,"componentType":5126,"count":1525,"type":"VEC3"},{"bufferView":3,"byteOffset":0,"componentType":5126,"count":1525,"type":"VEC2"}],"bufferViews":[{"buffer":0,"byteOffset":0,"byteLength":27264,"target":34963},{"buffer":0,"byteOffset":27264,"byteLength":18300,"target":34962},{"buffer":0,"byteOffset":45564,"byteLength":18300,"target":34962},{"buffer":0,"byteOffset":63864,"byteLength":12200,"target":34962}],"cameras":[{"name":"Camera","type":"perspective","extras":{"targetDistance":0.40787928993329525},"perspective":{"aspectRatio":1.4675615212527964,"yfov":0.6108652381980153,"zfar":35.46295931339655,"znear":0.011220759945794466}}],"scene":0,"scenes":[{"nodes":[0,2],"name":"Dome"}],"extensionsUsed":["KHR_texture_transform"],"buffers":[{"byteLength":76064,"uri":"Dome.bin"}]}